<svg width="24" height="24" viewBox="0 0 24 24" fill="none" xmlns="http://www.w3.org/2000/svg">
<path d="M7.92815 3.21184H7.71387C7.83173 3.21184 7.92815 3.11541 7.92815 2.99755V3.21184H16.071V2.99755C16.071 3.11541 16.1674 3.21184 16.2853 3.21184H16.071V5.14041H17.9996V2.99755C17.9996 2.05201 17.2308 1.28326 16.2853 1.28326H7.71387C6.76833 1.28326 5.99958 2.05201 5.99958 2.99755V5.14041H7.92815V3.21184ZM21.4282 5.14041H2.57101C2.0969 5.14041 1.71387 5.52344 1.71387 5.99755V6.85469C1.71387 6.97255 1.8103 7.06898 1.92815 7.06898H3.54601L4.20762 21.0779C4.25047 21.9913 5.00583 22.7118 5.91922 22.7118H18.0799C18.996 22.7118 19.7487 21.994 19.7915 21.0779L20.4532 7.06898H22.071C22.1889 7.06898 22.2853 6.97255 22.2853 6.85469V5.99755C22.2853 5.52344 21.9023 5.14041 21.4282 5.14041ZM17.8737 20.7833H6.12548L5.47726 7.06898H18.5219L17.8737 20.7833Z" fill="white" fill-opacity="0.85"/>
</svg>
