<svg width="22" height="22" viewBox="0 0 22 22" fill="none" xmlns="http://www.w3.org/2000/svg">
<path d="M4.18808 17.4261C4.24165 17.4261 4.29522 17.4208 4.34879 17.4127L8.85415 16.6226C8.90772 16.6118 8.95862 16.5877 8.99612 16.5476L20.3506 5.19309C20.3754 5.16831 20.3951 5.13887 20.4086 5.10647C20.422 5.07406 20.4289 5.03933 20.4289 5.00425C20.4289 4.96917 20.422 4.93443 20.4086 4.90203C20.3951 4.86962 20.3754 4.84019 20.3506 4.81541L15.8988 0.360943C15.8479 0.31005 15.7809 0.283264 15.7086 0.283264C15.6363 0.283264 15.5693 0.31005 15.5184 0.360943L4.16397 11.7154C4.12379 11.7556 4.09969 11.8038 4.08897 11.8574L3.29879 16.3627C3.27274 16.5062 3.28205 16.6539 3.32592 16.793C3.36979 16.9321 3.4469 17.0584 3.55058 17.1609C3.72736 17.3324 3.94969 17.4261 4.18808 17.4261ZM5.99344 12.7547L15.7086 3.04219L17.672 5.00559L7.95683 14.7181L5.57558 15.1386L5.99344 12.7547ZM20.8568 19.6761H1.14254C0.668436 19.6761 0.2854 20.0592 0.2854 20.5333V21.4976C0.2854 21.6154 0.381829 21.7118 0.499686 21.7118H21.4997C21.6175 21.7118 21.714 21.6154 21.714 21.4976V20.5333C21.714 20.0592 21.3309 19.6761 20.8568 19.6761Z" fill="white" fill-opacity="0.85"/>
</svg>
